<?xml version="1.0" standalone="no"?>
<!DOCTYPE svg PUBLIC "-//W3C//DTD SVG 20010904//EN"
 "http://www.w3.org/TR/2001/REC-SVG-20010904/DTD/svg10.dtd">
<svg version="1.0" xmlns="http://www.w3.org/2000/svg"
 width="1659.000000pt" height="1659.000000pt" viewBox="0 0 1659.000000 1659.000000"
 preserveAspectRatio="xMidYMid meet">
<metadata>
Created by potrace 1.14, written by Peter Selinger 2001-2017
</metadata>
<g transform="translate(0.000000,1659.000000) scale(0.100000,-0.100000)"
fill="#000000" stroke="none">
<path d="M8225 16099 c-156 -17 -273 -54 -399 -128 -47 -27 -336 -252 -488
-379 -13 -11 -48 -40 -78 -64 -61 -49 -314 -253 -345 -279 -11 -10 -105 -86
-210 -170 -104 -84 -192 -155 -195 -158 -3 -4 -21 -18 -42 -33 -20 -15 -42
-33 -50 -40 -7 -7 -69 -58 -138 -112 -69 -55 -141 -114 -161 -130 -47 -41 -62
-53 -209 -171 -69 -55 -134 -107 -145 -117 -22 -18 -356 -289 -640 -517 -99
-80 -182 -147 -185 -150 -3 -4 -27 -24 -55 -46 -27 -21 -52 -42 -55 -45 -3 -3
-25 -21 -50 -40 -25 -19 -54 -42 -65 -52 -11 -9 -87 -71 -170 -138 -82 -67
-159 -129 -170 -138 -100 -83 -218 -173 -222 -168 -3 2 -5 402 -4 888 0 602
-3 899 -11 933 -18 85 -64 164 -127 219 -13 12 -29 26 -35 32 -21 20 -121 62
-166 69 -58 10 -1089 10 -1155 1 -64 -10 -160 -56 -206 -100 -66 -62 -120
-158 -133 -236 -3 -14 -5 -764 -5 -1667 l-1 -1642 -142 -115 c-79 -63 -233
-188 -343 -276 -110 -89 -211 -172 -225 -183 -14 -12 -48 -40 -75 -62 -28 -21
-52 -42 -55 -45 -3 -3 -14 -13 -26 -21 -11 -8 -41 -31 -65 -51 -42 -35 -171
-139 -478 -387 -79 -64 -185 -150 -236 -191 -50 -41 -108 -88 -129 -105 -21
-16 -46 -37 -56 -45 -10 -8 -83 -67 -162 -130 -169 -136 -239 -203 -268 -259
-51 -101 -48 168 -46 -4491 2 -2384 6 -4348 10 -4364 30 -125 140 -243 271
-292 49 -18 272 -19 7999 -20 7785 -2 7950 -2 8004 17 142 49 245 152 284 281
10 35 13 882 14 4368 1 2638 -2 4346 -8 4380 -11 64 -34 119 -75 175 -17 22
-185 166 -374 320 -189 154 -353 287 -364 296 -11 10 -146 120 -300 245 -154
125 -314 255 -355 289 -70 57 -367 298 -506 411 -33 27 -168 137 -300 244
-131 107 -246 200 -254 207 -8 6 -44 36 -80 65 -57 48 -489 398 -654 532 -34
27 -144 117 -246 200 -102 83 -192 156 -200 163 -26 21 -104 84 -125 101 -11
10 -67 55 -125 102 -57 47 -114 93 -125 102 -11 9 -90 73 -175 143 -85 69
-162 131 -170 138 -8 7 -73 60 -145 117 -71 58 -139 113 -150 122 -11 9 -112
92 -225 183 -113 92 -214 174 -225 184 -11 9 -92 75 -180 146 -88 71 -162 132
-165 135 -3 3 -63 52 -135 110 -71 57 -132 107 -135 110 -3 3 -61 50 -130 105
-69 55 -127 102 -130 105 -7 7 -118 98 -165 135 -38 30 -211 171 -250 203 -11
10 -54 44 -95 77 -41 33 -84 68 -95 77 -11 9 -112 92 -225 184 -113 92 -223
181 -245 199 -22 18 -85 70 -140 114 -55 45 -118 96 -139 114 -263 214 -339
271 -421 312 -174 86 -355 122 -530 104z"/>
</g>
</svg>
